<svg width="1440" height="772" viewBox="0 0 1440 772" fill="none" xmlns="http://www.w3.org/2000/svg">
<rect width="1440" height="772" fill="url(#paint0_linear_657_3811)"/>
<path opacity="0.2" d="M1008.78 770.507C972.528 770.507 936.275 770.85 900.047 770.507C878.694 770.299 858.021 762.935 841.298 749.58C824.574 736.225 812.756 717.642 807.713 696.772C793.936 641.905 830.942 585.766 886.561 577.505C890.595 576.894 891.712 575.404 892.368 571.542C895.447 551.713 905.217 533.553 920.037 520.115C934.856 506.676 953.823 498.777 973.75 497.745C993.677 496.713 1013.35 502.61 1029.46 514.447C1045.58 526.283 1057.15 543.337 1062.24 562.744C1062.48 564.2 1063.17 565.54 1064.23 566.565C1065.28 567.591 1066.64 568.248 1068.09 568.438C1091.12 573.927 1107.08 587.669 1116.19 608.977C1117.2 611.35 1117.64 614.135 1119.52 615.898C1119.64 616.012 1119.77 616.123 1119.9 616.228C1121.05 617.145 1122.49 617.634 1123.95 617.611C1163.49 621.106 1194.66 656.422 1193.33 695.941C1192.85 715.617 1184.83 734.347 1170.95 748.219C1157.07 762.09 1138.39 770.032 1118.83 770.385C1082.06 770.898 1045.42 770.507 1008.78 770.507Z" fill="url(#paint1_linear_657_3811)"/>
<path opacity="0.2" d="M496.911 770.487C455.514 770.487 414.117 770.876 372.748 770.487C348.366 770.25 324.759 761.871 305.663 746.675C286.566 731.48 273.071 710.336 267.313 686.589C251.581 624.16 293.838 560.284 357.349 550.885C361.955 550.19 363.231 548.494 363.98 544.1C367.495 521.538 378.652 500.875 395.574 485.585C412.497 470.294 434.155 461.306 456.909 460.132C479.663 458.958 502.128 465.668 520.528 479.136C538.928 492.603 552.143 512.008 557.952 534.089C558.224 535.746 559.021 537.27 560.226 538.437C561.43 539.604 562.977 540.352 564.639 540.568C591.106 546.855 609.394 562.657 619.765 587.177C620.774 589.561 621.23 592.298 622.992 594.196C623.241 594.464 623.51 594.714 623.8 594.944C625.115 595.988 626.749 596.544 628.426 596.518C673.569 600.495 709.167 640.678 707.641 685.644C707.094 708.032 697.939 729.342 682.087 745.126C666.235 760.91 644.913 769.946 622.572 770.348C580.593 770.932 538.752 770.487 496.911 770.487Z" fill="url(#paint2_linear_657_3811)"/>
<path opacity="0.2" d="M1156.42 770.54C1127.67 770.54 1098.93 770.81 1070.21 770.54C1053.28 770.376 1036.89 764.569 1023.64 754.039C1010.38 743.51 1001.01 728.858 997.011 712.402C986.088 669.141 1015.43 624.878 1059.52 618.365C1062.72 617.883 1063.6 616.708 1064.12 613.663C1066.57 598.029 1074.31 583.71 1086.06 573.115C1097.81 562.519 1112.85 556.291 1128.64 555.477C1144.44 554.663 1160.04 559.313 1172.81 568.646C1185.59 577.978 1194.76 591.425 1198.8 606.726C1198.98 607.874 1199.54 608.931 1200.37 609.739C1201.21 610.548 1202.28 611.066 1203.44 611.216C1221.56 615.512 1234.16 626.221 1241.41 642.812C1242.33 644.923 1242.71 647.465 1244.51 648.896C1245.43 649.62 1246.56 650.005 1247.72 649.987C1279.07 652.743 1303.78 680.588 1302.72 711.747C1302.34 727.261 1295.99 742.029 1284.98 752.966C1273.97 763.903 1259.17 770.165 1243.66 770.443C1214.51 770.848 1185.47 770.54 1156.42 770.54Z" fill="url(#paint3_linear_657_3811)"/>
<path opacity="0.2" d="M299.696 770.54C270.954 770.54 242.213 770.81 213.492 770.54C196.564 770.376 180.174 764.569 166.916 754.039C153.658 743.51 144.288 728.858 140.291 712.402C129.368 669.141 158.706 624.878 202.8 618.365C205.998 617.883 206.884 616.708 207.404 613.663C209.845 598.029 217.591 583.71 229.34 573.115C241.089 562.519 256.125 556.291 271.923 555.477C287.721 554.663 303.318 559.313 316.092 568.646C328.867 577.978 338.042 591.425 342.075 606.726C342.264 607.874 342.818 608.931 343.654 609.739C344.49 610.548 345.564 611.066 346.718 611.216C364.84 615.512 377.438 626.221 384.689 642.812C385.612 644.923 385.987 647.465 387.792 648.896C388.705 649.62 389.84 650.005 391.004 649.987C422.346 652.743 447.061 680.588 446.001 711.747C445.621 727.261 439.265 742.029 428.26 752.966C417.254 763.903 402.451 770.165 386.94 770.443C357.794 770.848 328.745 770.54 299.696 770.54Z" fill="url(#paint4_linear_657_3811)"/>
<defs>
<linearGradient id="paint0_linear_657_3811" x1="481.89" y1="815.215" x2="1229.42" y2="-296.968" gradientUnits="userSpaceOnUse">
<stop stop-color="#018CFF"/>
<stop offset="0.954583" stop-color="#40D2FD"/>
</linearGradient>
<linearGradient id="paint1_linear_657_3811" x1="999.096" y1="497.629" x2="999.096" y2="770.66" gradientUnits="userSpaceOnUse">
<stop stop-color="#00C6FB"/>
<stop offset="1" stop-color="#007AFF"/>
</linearGradient>
<linearGradient id="paint2_linear_657_3811" x1="485.851" y1="460" x2="485.851" y2="770.66" gradientUnits="userSpaceOnUse">
<stop stop-color="#00C6FB"/>
<stop offset="1" stop-color="#007AFF"/>
</linearGradient>
<linearGradient id="paint3_linear_657_3811" x1="1148.74" y1="555.386" x2="1148.74" y2="770.66" gradientUnits="userSpaceOnUse">
<stop stop-color="#00C6FB"/>
<stop offset="1" stop-color="#007AFF"/>
</linearGradient>
<linearGradient id="paint4_linear_657_3811" x1="292.017" y1="555.386" x2="292.017" y2="770.66" gradientUnits="userSpaceOnUse">
<stop stop-color="#00C6FB"/>
<stop offset="1" stop-color="#007AFF"/>
</linearGradient>
</defs>
</svg>
